<svg width="24" height="25" viewBox="0 0 24 25" fill="none" xmlns="http://www.w3.org/2000/svg">
<g clip-path="url(#clip0_385_2707)">
<path d="M23.79 16.2754L19.978 17.3104L21.012 21.1224L19.082 21.6464L17.894 17.2674L15.931 16.1424L13 17.8344V20.1044L16.207 23.3104L14.793 24.7244L12 21.9324L9.20696 24.7254L7.79296 23.3104L11 20.1044V17.8344L8.06896 16.1424L6.10596 17.2674L4.91796 21.6464L2.98796 21.1224L4.02196 17.3104L0.209961 16.2754L0.732961 14.3464L5.11096 15.5334L6.99996 14.4504V11.0224L5.11096 9.9384L0.732961 11.1254L0.209961 9.1954L4.02196 8.1624L2.98796 4.3504L4.91796 3.8264L6.10596 8.2044L7.89996 9.2334L11 7.4434V5.3674L7.79296 2.1604L9.20696 0.746399L12 3.5394L14.793 0.746399L16.207 2.1604L13 5.3674V7.4434L16.1 9.2334L17.9 8.2044L19.087 3.8264L21.017 4.3504L19.978 8.1624L23.79 9.1954L23.267 11.1254L18.889 9.9384L17 11.0214V14.4504L18.889 15.5334L23.267 14.3464L23.79 16.2754Z" fill="black"/>
</g>
<defs>
<clipPath id="clip0_385_2707">
<rect width="24" height="24" fill="white" transform="translate(0 0.710022)"/>
</clipPath>
</defs>
</svg>
