<svg width="15" height="14" viewBox="0 0 15 14" fill="none" xmlns="http://www.w3.org/2000/svg">
<g clip-path="url(#clip0_170_2653)">
<path d="M0.933105 11.1112C0.934023 11.8771 1.23868 12.6113 1.78025 13.1529C2.32183 13.6945 3.0561 13.9991 3.82199 14.0001H11.9109C12.6768 13.9991 13.4111 13.6945 13.9526 13.1529C14.4942 12.6113 14.7989 11.8771 14.7998 11.1112V5.91116H0.933105V11.1112ZM10.7553 8.51116C10.9267 8.51116 11.0943 8.56199 11.2368 8.65722C11.3793 8.75245 11.4904 8.88781 11.556 9.04617C11.6216 9.20453 11.6388 9.37879 11.6053 9.54691C11.5719 9.71502 11.4894 9.86945 11.3682 9.99066C11.2469 10.1119 11.0925 10.1944 10.9244 10.2278C10.7563 10.2613 10.582 10.2441 10.4237 10.1785C10.2653 10.1129 10.13 10.0018 10.0347 9.85932C9.93949 9.7168 9.88866 9.54924 9.88866 9.37783C9.88866 9.14798 9.97997 8.92754 10.1425 8.765C10.305 8.60247 10.5255 8.51116 10.7553 8.51116ZM7.86644 8.51116C8.03785 8.51116 8.20541 8.56199 8.34793 8.65722C8.49046 8.75245 8.60154 8.88781 8.66713 9.04617C8.73273 9.20453 8.74989 9.37879 8.71645 9.54691C8.68301 9.71502 8.60047 9.86945 8.47927 9.99066C8.35806 10.1119 8.20363 10.1944 8.03552 10.2278C7.8674 10.2613 7.69314 10.2441 7.53478 10.1785C7.37642 10.1129 7.24106 10.0018 7.14583 9.85932C7.0506 9.7168 6.99977 9.54924 6.99977 9.37783C6.99977 9.14798 7.09108 8.92754 7.25361 8.765C7.41614 8.60247 7.63658 8.51116 7.86644 8.51116ZM4.97755 8.51116C5.14896 8.51116 5.31652 8.56199 5.45904 8.65722C5.60157 8.75245 5.71265 8.88781 5.77825 9.04617C5.84384 9.20453 5.861 9.37879 5.82756 9.54691C5.79412 9.71502 5.71158 9.86945 5.59038 9.99066C5.46917 10.1119 5.31475 10.1944 5.14663 10.2278C4.97851 10.2613 4.80425 10.2441 4.64589 10.1785C4.48753 10.1129 4.35217 10.0018 4.25694 9.85932C4.16171 9.7168 4.11088 9.54924 4.11088 9.37783C4.11088 9.14798 4.20219 8.92754 4.36472 8.765C4.52726 8.60247 4.7477 8.51116 4.97755 8.51116Z" fill="white"/>
<path d="M11.9109 1.28889H11.3331V0.711109C11.3331 0.557873 11.2722 0.410913 11.1639 0.302559C11.0555 0.194204 10.9086 0.133331 10.7553 0.133331C10.6021 0.133331 10.4551 0.194204 10.3468 0.302559C10.2384 0.410913 10.1776 0.557873 10.1776 0.711109V1.28889H5.55533V0.711109C5.55533 0.557873 5.49445 0.410913 5.3861 0.302559C5.27775 0.194204 5.13079 0.133331 4.97755 0.133331C4.82431 0.133331 4.67735 0.194204 4.569 0.302559C4.46065 0.410913 4.39977 0.557873 4.39977 0.711109V1.28889H3.82199C3.0561 1.2898 2.32183 1.59446 1.78025 2.13604C1.23868 2.67761 0.934023 3.41188 0.933105 4.17778L0.933105 4.75555H14.7998V4.17778C14.7989 3.41188 14.4942 2.67761 13.9526 2.13604C13.4111 1.59446 12.6768 1.2898 11.9109 1.28889Z" fill="white"/>
</g>
<defs>
<clipPath id="clip0_170_2653">
<rect width="13.8667" height="13.8667" fill="white" transform="translate(0.933105 0.133331)"/>
</clipPath>
</defs>
</svg>
