<svg width="18" height="18" viewBox="0 0 18 18" fill="none" xmlns="http://www.w3.org/2000/svg">
<path d="M1.20499 13.5C1.82536 14.5767 3.20113 14.9466 4.27783 14.3262C4.27856 14.3258 4.27927 14.3254 4.28 14.325L4.61374 14.1322C5.24374 14.6712 5.96789 15.0892 6.74973 15.3652V15.75C6.74973 16.9926 7.7571 18 8.99973 18C10.2424 18 11.2497 16.9926 11.2497 15.75V15.3652C12.0317 15.0888 12.7559 14.6703 13.3857 14.1307L13.721 14.3242C14.7979 14.9456 16.1747 14.5762 16.796 13.4992C17.4173 12.4223 17.0479 11.0455 15.971 10.4242L15.638 10.2322C15.7879 9.41657 15.7879 8.58041 15.638 7.76472L15.971 7.57273C17.0479 6.95141 17.4173 5.57469 16.796 4.49771C16.1747 3.42077 14.7979 3.05139 13.721 3.6727L13.3872 3.86546C12.7566 3.32712 12.032 2.90988 11.2497 2.63475V2.25C11.2497 1.00737 10.2424 0 8.99973 0C7.7571 0 6.74973 1.00737 6.74973 2.25V2.63475C5.96779 2.91118 5.2436 3.32968 4.61374 3.86926L4.27849 3.67502C3.20152 3.05367 1.8248 3.42306 1.20348 4.5C0.582165 5.57694 0.951517 6.9537 2.02849 7.57501L2.36149 7.767C2.21159 8.58266 2.21159 9.41882 2.36149 10.2345L2.02849 10.4265C0.954505 11.0495 0.586349 12.4235 1.20499 13.5ZM8.99973 6.00001C10.6566 6.00001 11.9997 7.34316 11.9997 9C11.9997 10.6568 10.6566 12 8.99973 12C7.34289 12 5.99974 10.6568 5.99974 9C5.99974 7.34316 7.34289 6.00001 8.99973 6.00001Z" fill="white"/>
</svg>
