<svg width="14" height="14" viewBox="0 0 14 14" fill="none" xmlns="http://www.w3.org/2000/svg">
<g clip-path="url(#clip0_170_2662)">
<path d="M0.683667 11.1525C0.246052 11.59 0.000132154 12.1834 0 12.8022L0 13.9998H1.19758C1.81637 13.9997 2.40977 13.7537 2.84725 13.3161L10.6307 5.53272L8.46708 3.36914L0.683667 11.1525Z" fill="white"/>
<path d="M13.5013 0.498837C13.3593 0.356641 13.1906 0.243836 13.0049 0.166872C12.8193 0.0899075 12.6202 0.050293 12.4192 0.050293C12.2183 0.050293 12.0192 0.0899075 11.8336 0.166872C11.6479 0.243836 11.4792 0.356641 11.3372 0.498837L9.29199 2.54459L11.4556 4.70817L13.5013 2.663C13.6435 2.52096 13.7563 2.35227 13.8333 2.1666C13.9103 1.98093 13.9499 1.78191 13.9499 1.58092C13.9499 1.37993 13.9103 1.18091 13.8333 0.995238C13.7563 0.809566 13.6435 0.640885 13.5013 0.498837Z" fill="white"/>
</g>
<defs>
<clipPath id="clip0_170_2662">
<rect width="14" height="14" fill="white"/>
</clipPath>
</defs>
</svg>
