<svg width="24" height="25" viewBox="0 0 24 25" fill="none" xmlns="http://www.w3.org/2000/svg">
<g clip-path="url(#clip0_385_2708)">
<path d="M12 19.7099C14.2091 19.7099 16 17.9191 16 15.71C16 13.5008 14.2091 11.71 12 11.71C9.79086 11.71 8 13.5008 8 15.71C8 17.9191 9.79086 19.7099 12 19.7099Z" fill="black"/>
<path d="M21 5.70996H3C2.20435 5.70996 1.44129 6.02603 0.87868 6.58864C0.31607 7.15125 0 7.91431 0 8.70996L0 24.7099H24V8.70996C24 7.91431 23.6839 7.15125 23.1213 6.58864C22.5587 6.02603 21.7956 5.70996 21 5.70996ZM12 21.7099C10.8133 21.7099 9.65327 21.358 8.66658 20.6988C7.67988 20.0395 6.91085 19.1024 6.45672 18.006C6.0026 16.9097 5.88378 15.7033 6.11529 14.5394C6.3468 13.3755 6.91824 12.3064 7.75736 11.4673C8.59647 10.6282 9.66557 10.0568 10.8295 9.82524C11.9933 9.59373 13.1997 9.71255 14.2961 10.1667C15.3925 10.6208 16.3295 11.3898 16.9888 12.3765C17.6481 13.3632 18 14.5233 18 15.7099C17.9984 17.3008 17.3658 18.826 16.2409 19.9508C15.116 21.0757 13.5908 21.7083 12 21.7099Z" fill="black"/>
<path d="M17.7203 3.71002L15.4063 0.710022H8.59327L6.28027 3.71002H17.7203Z" fill="black"/>
</g>
<defs>
<clipPath id="clip0_385_2708">
<rect width="24" height="24" fill="white" transform="translate(0 0.710022)"/>
</clipPath>
</defs>
</svg>
