<svg width="15" height="15" viewBox="0 0 15 15" fill="none" xmlns="http://www.w3.org/2000/svg">
<g clip-path="url(#clip0_170_2650)">
<path d="M7.86644 14.2667C11.6956 14.2667 14.7998 11.1625 14.7998 7.33333C14.7998 3.50415 11.6956 0.399994 7.86644 0.399994C4.03726 0.399994 0.933105 3.50415 0.933105 7.33333C0.937249 11.1608 4.03897 14.2625 7.86644 14.2667ZM7.28867 3.86666C7.28867 3.54756 7.54734 3.28889 7.86644 3.28889C8.18553 3.28889 8.44421 3.54756 8.44421 3.86666V8.48889C8.44421 8.80799 8.18553 9.06666 7.86644 9.06666C7.54734 9.06666 7.28867 8.80799 7.28867 8.48889V3.86666ZM7.86644 10.8C8.18553 10.8 8.44421 11.0587 8.44421 11.3778C8.44421 11.6969 8.18553 11.9555 7.86644 11.9555C7.54734 11.9555 7.28867 11.6969 7.28867 11.3778C7.28867 11.0587 7.54734 10.8 7.86644 10.8Z" fill="white"/>
</g>
<defs>
<clipPath id="clip0_170_2650">
<rect width="13.8667" height="13.8667" fill="white" transform="translate(0.933105 0.399994)"/>
</clipPath>
</defs>
</svg>
