<svg width="32" height="32" viewBox="0 0 32 32" fill="none" xmlns="http://www.w3.org/2000/svg">
<path d="M14.6092 16.472C14.5471 16.4101 14.4979 16.3366 14.4643 16.2556C14.4307 16.1746 14.4134 16.0877 14.4134 16C14.4134 15.9124 14.4307 15.8255 14.4643 15.7445C14.4979 15.6635 14.5471 15.59 14.6092 15.528L20.7239 9.41471C21.0991 9.0397 21.3099 8.531 21.3101 8.00052C21.3102 7.47004 21.0996 6.96124 20.7246 6.58605C20.3495 6.21085 19.8408 6 19.3104 5.99988C18.7799 5.99975 18.2711 6.21036 17.8959 6.58538L11.7812 12.7C10.9076 13.5761 10.417 14.7628 10.417 16C10.417 17.2373 10.9076 18.424 11.7812 19.3L17.8959 25.4147C18.2711 25.7897 18.7799 26.0003 19.3104 26.0002C19.8408 26.0001 20.3495 25.7892 20.7246 25.414C21.0996 25.0389 21.3102 24.5301 21.3101 23.9996C21.3099 23.4691 21.0991 22.9604 20.7239 22.5854L14.6092 16.472Z" fill="#2376D7"/>
</svg>
