<svg width="16" height="16" viewBox="0 0 16 16" fill="none" xmlns="http://www.w3.org/2000/svg">
<g clip-path="url(#clip0_170_2642)">
<path d="M15.221 6.11408L12.635 3.52808C12.3701 3.27229 11.9481 3.27964 11.6923 3.54448C11.4428 3.80283 11.4428 4.21242 11.6923 4.47076L14.2783 7.05676C14.3551 7.13511 14.4223 7.22242 14.4783 7.31676C14.4683 7.31676 14.4603 7.31142 14.4503 7.31142L3.99429 7.33276C3.62611 7.33276 3.32764 7.63123 3.32764 7.99942C3.32764 8.36761 3.62611 8.66608 3.99429 8.66608L14.4463 8.64473C14.465 8.64473 14.4803 8.63539 14.4983 8.63407C14.4392 8.74686 14.3642 8.85058 14.2756 8.94208L11.6896 11.5281C11.4248 11.7839 11.4174 12.2059 11.6732 12.4707C11.929 12.7356 12.351 12.7429 12.6159 12.4871C12.6215 12.4818 12.6269 12.4763 12.6323 12.4707L15.2183 9.88473C16.2593 8.84339 16.2593 7.15539 15.2183 6.11408H15.221Z" fill="white"/>
<path d="M4.66812 14.6667H3.33478C2.23021 14.6667 1.33478 13.7712 1.33478 12.6667V3.33334C1.33478 2.22878 2.23021 1.33334 3.33478 1.33334H4.66812C5.03631 1.33334 5.33478 1.03487 5.33478 0.666687C5.33478 0.2985 5.03634 0 4.66812 0H3.33478C1.49478 0.00221875 0.00368359 1.49331 0.00146484 3.33334V12.6667C0.00368359 14.5067 1.49478 15.9978 3.33481 16H4.66815C5.03634 16 5.33481 15.7015 5.33481 15.3333C5.33481 14.9652 5.03634 14.6667 4.66812 14.6667Z" fill="white"/>
</g>
<defs>
<clipPath id="clip0_170_2642">
<rect width="16" height="16" fill="white"/>
</clipPath>
</defs>
</svg>
